<svg xmlns="http://www.w3.org/2000/svg" viewBox="0 0 30 30"><defs><style>.cls-1{fill:#28a8e0;}</style></defs><title>Asset 5</title><g id="Layer_2" data-name="Layer 2"><g id="Layer_1-2" data-name="Layer 1"><path class="cls-1" d="M23.47,10.43a6.59,6.59,0,0,1-1.92.53A3.38,3.38,0,0,0,23,9.11a6.77,6.77,0,0,1-2.13.81,3.34,3.34,0,0,0-5.78,2.29,3.22,3.22,0,0,0,.09.76A9.5,9.5,0,0,1,8.31,9.48a3.27,3.27,0,0,0-.45,1.68,3.35,3.35,0,0,0,1.48,2.78,3.38,3.38,0,0,1-1.51-.42v0a3.36,3.36,0,0,0,2.68,3.28,3.59,3.59,0,0,1-.88.12A3.28,3.28,0,0,1,9,16.9a3.37,3.37,0,0,0,3.13,2.32A6.78,6.78,0,0,1,8,20.65a7,7,0,0,1-.79,0,9.51,9.51,0,0,0,14.63-8c0-.14,0-.29,0-.43a6.87,6.87,0,0,0,1.67-1.73"/><path class="cls-1" d="M15,30A15,15,0,1,1,30,15,15,15,0,0,1,15,30ZM15,1A14,14,0,1,0,29,15,14,14,0,0,0,15,1Z"/></g></g></svg>