<svg xmlns="http://www.w3.org/2000/svg" xmlns:xlink="http://www.w3.org/1999/xlink" viewBox="0 0 30 30"><defs><style>.cls-1{fill:url(#linear-gradient);}.cls-2{fill:url(#linear-gradient-2);}.cls-3{fill:url(#linear-gradient-3);}</style><linearGradient id="linear-gradient" x1="17.85" y1="10.25" x2="17.85" y2="24.81" gradientTransform="translate(-2.95 -2.48) rotate(-0.3)" gradientUnits="userSpaceOnUse"><stop offset="0" stop-color="#5159a7"/><stop offset="0.23" stop-color="#b93e96"/><stop offset="0.43" stop-color="#ee3560"/><stop offset="0.62" stop-color="#f05140"/><stop offset="0.81" stop-color="#ee7e2c"/><stop offset="1" stop-color="#efb74d"/></linearGradient><linearGradient id="linear-gradient-2" x1="17.85" y1="10.25" x2="17.85" y2="24.81" xlink:href="#linear-gradient"/><linearGradient id="linear-gradient-3" x1="17.85" y1="2.58" x2="17.85" y2="32.58" xlink:href="#linear-gradient"/></defs><title>Asset 7</title><g id="Layer_2" data-name="Layer 2"><g id="Layer_1-2" data-name="Layer 1"><path class="cls-1" d="M18.8,7.75l-7.67,0A3.39,3.39,0,0,0,7.75,11.2l0,7.67a3.39,3.39,0,0,0,3.41,3.38l7.67,0a3.39,3.39,0,0,0,3.38-3.41l0-7.67A3.39,3.39,0,0,0,18.8,7.75ZM15,19.6A4.6,4.6,0,1,1,19.6,15,4.61,4.61,0,0,1,15,19.6Zm4.71-8.33a1.07,1.07,0,0,1,0-2.14,1.07,1.07,0,1,1,0,2.14Z"/><path class="cls-2" d="M15,12a3,3,0,1,0,3,3A3,3,0,0,0,15,12Z"/><path class="cls-3" d="M15,30a15,15,0,0,1-.08-30H15A15,15,0,0,1,30,14.92h0A15,15,0,0,1,15.08,30ZM15,1h-.07A14,14,0,0,0,15,29h.07a14,14,0,0,0,14-14.1h0A14,14,0,0,0,15,1Z"/></g></g></svg>