<svg xmlns="http://www.w3.org/2000/svg" viewBox="0 0 30 30"><defs><style>.cls-1{fill:#fff;}</style></defs><title>Asset 6</title><g id="Layer_2" data-name="Layer 2"><g id="Layer_1-2" data-name="Layer 1"><path class="cls-1" d="M16.05,15.78h2.71l.4-3.15H16.05v-2c0-.91.25-1.53,1.56-1.53h1.67V6.27a22.3,22.3,0,0,0-2.43-.12,3.79,3.79,0,0,0-4.05,4.16v2.32H10.08v3.15H12.8v8.07h3.25Z"/><path class="cls-1" d="M15,30A15,15,0,1,1,30,15,15,15,0,0,1,15,30ZM15,1A14,14,0,1,0,29,15,14,14,0,0,0,15,1Z"/></g></g></svg>