<?xml version="1.0" encoding="utf-8"?>
<!-- Generator: Adobe Illustrator 22.0.1, SVG Export Plug-In . SVG Version: 6.00 Build 0)  -->
<svg version="1.1" id="Layer_1" xmlns="http://www.w3.org/2000/svg" xmlns:xlink="http://www.w3.org/1999/xlink" x="0px" y="0px"
	 viewBox="0 0 122.5 122.7" style="enable-background:new 0 0 122.5 122.7;" xml:space="preserve">
<style type="text/css">
	.st0{fill:#FFFFFF;}
</style>
<g>
	<rect x="293.8" y="-204.5" width="148" height="148"/>
</g>
<g>
	<path class="st0" d="M62.4,77.6l-1.9-3c-0.1-0.2-5.4-8.4-14.6-17.5c-4.1,9-4.4,16.3-4.4,16.5l0,1.9h-17L7.8,30.7l3.7,0.9
		c13.3,3.4,24.6,11.1,33.3,18.9c3.4-5.8,8.4-11.9,15.7-17.3l1.2-0.9l1.2,0.8c0.6,0.4,9.2,6.7,15.5,17.1
		c14.8-12.5,31.4-18.3,32.4-18.6l3.9-1.3l-16,45.2H80.8l0.1-2.1c0.2-6.2-1.3-11.8-3.6-16.7c-5.2,5-9.9,10.8-13.2,17.7L62.4,77.6z
		 M84.8,71.6h11L108.1,37c-5.9,2.5-17.4,8-27.7,16.9C82.9,59.1,84.7,65,84.8,71.6z M27.3,71.6h10.4c0.3-3.2,1.4-9.8,5.1-17.4
		c-7.6-7-17.3-13.9-28.6-17.6L27.3,71.6z M47.9,53.4c6.8,6.6,11.6,12.8,14.1,16.3c3.6-6.4,8.3-11.9,13.3-16.6
		c-4.7-8.1-11-13.7-13.6-15.7C55.2,42.3,50.8,48,47.9,53.4z"/>
</g>
<g>
	<polygon class="st0" points="61.3,9.4 56.4,21.7 61.3,25.6 66,21.8 	"/>
</g>
<g>
	<g>
		<path class="st0" d="M44.9,113.3l-7.4-20c-0.3-0.7-0.5-1.2-0.7-1.5c-0.2-0.3-0.6-0.5-1-0.6l-1.5-0.5l0-0.7c1.1,0,2.4,0.1,3.8,0.1
			c1.5,0,3,0,4.6-0.1l0.1,0.7l-1.6,0.4c-0.2,0.1-0.4,0.1-0.5,0.2c-0.1,0.1-0.1,0.3-0.1,0.5c0,0.2,0.1,0.5,0.2,0.9
			c0.1,0.4,0.3,0.8,0.5,1.4l5.4,14.9l5.8-14.9c0.2-0.6,0.4-1.1,0.5-1.5c0.1-0.4,0.2-0.7,0.2-0.9c0-0.2-0.1-0.3-0.2-0.4
			c-0.1-0.1-0.3-0.2-0.5-0.2l-1.5-0.4l0-0.8c1.2,0,2.4,0.1,3.7,0.1c1.2,0,2.4,0,3.5-0.1l0.1,0.7l-1.7,0.5c-0.4,0.1-0.7,0.3-0.9,0.6
			c-0.2,0.3-0.5,0.8-0.8,1.6l-8.3,19.9L44.9,113.3z"/>
	</g>
	<g>
		<path class="st0" d="M64.7,108c0,0.7,0,1.3,0,1.8c0,0.5,0,1,0,1.5c0,0.3,0.2,0.5,0.6,0.6l1.9,0.6l0,0.7c-1.4,0-2.8,0-4.1,0
			c-1.3,0-2.7,0-4.1,0l-0.1-0.7l2-0.6c0.3-0.1,0.4-0.2,0.4-0.5c0-0.4,0-0.9,0-1.5c0-0.5,0-1.2,0-1.8V94.6c0-0.6,0-1.1,0-1.5
			c0-0.5,0-0.9,0-1.2c0-0.3-0.1-0.5-0.4-0.6l-2.1-0.6l0-0.7c1.4,0,2.8,0.1,4.1,0.1c1.3,0,2.7,0,4.1-0.1l0.1,0.7l-2.1,0.6
			c-0.3,0.1-0.4,0.2-0.4,0.5c0,0.4,0,0.8,0,1.3c0,0.5,0,1,0,1.5V108z"/>
	</g>
	<g>
		<path class="st0" d="M76.2,108c0,0.7,0,1.3,0,1.8c0,0.5,0,1,0,1.4c0,0.3,0.2,0.4,0.4,0.5l2.3,0.7l0,0.7c-1.6,0-3.1,0-4.4,0
			c-1.3,0-2.7,0-4.1,0l-0.1-0.7l2-0.6c0.3-0.1,0.4-0.3,0.4-0.5c0-0.4,0-0.9,0-1.5c0-0.5,0-1.2,0-1.8V94.6c0-0.6,0-1.1,0-1.5
			c0-0.5,0-0.9,0-1.2c0-0.3-0.1-0.5-0.4-0.6l-2.1-0.6l0-0.7c1.4,0,2.8,0.1,4.2,0.1c0.9,0,1.8,0,2.7-0.1c0.9,0,1.6-0.1,2.3-0.1
			c2.6,0,4.6,0.5,5.9,1.5c1.3,1,2,2.5,2,4.6c0,2.4-0.8,4.2-2.3,5.5c-1.6,1.3-3.7,2-6.5,2c-0.8,0-1.6,0-2.5-0.1V108z M76.2,101.9
			c0.8,0.1,1.5,0.2,2.3,0.2c1.8,0,3.1-0.5,4-1.4c0.9-0.9,1.4-2.3,1.4-4.2c0-1.8-0.4-3.1-1.3-4s-2.3-1.3-4.2-1.3
			c-0.7,0-1.5,0-2.2,0.1V101.9z"/>
	</g>
</g>
</svg>
